<mxfile host="app.diagrams.net" modified="2023-12-05T15:06:27.926Z" agent="Mozilla/5.0 (Windows NT 10.0; Win64; x64) AppleWebKit/537.36 (KHTML, like Gecko) Chrome/119.0.0.0 Safari/537.36 Edg/119.0.0.0" etag="s0WSt0UetIbtJxdsyK-G" version="22.1.5" type="github">
  <diagram name="Page-1" id="8ce9d11a-91a2-4d17-14d8-a56ed91bf033">
    <mxGraphModel dx="1066" dy="782" grid="1" gridSize="10" guides="1" tooltips="1" connect="1" arrows="1" fold="1" page="1" pageScale="1" pageWidth="1100" pageHeight="850" background="none" math="0" shadow="0">
      <root>
        <mxCell id="0" />
        <mxCell id="1" parent="0" />
        <mxCell id="U-zHn95BD_rkfPfJ5epH-1" value="LD3" style="ellipse;whiteSpace=wrap;html=1;aspect=fixed;fillColor=#f5f5f5;fontColor=#333333;strokeColor=#666666;" vertex="1" parent="1">
          <mxGeometry x="320" y="411" width="40" height="40" as="geometry" />
        </mxCell>
        <mxCell id="U-zHn95BD_rkfPfJ5epH-3" value="LD1" style="ellipse;whiteSpace=wrap;html=1;aspect=fixed;fillColor=#f5f5f5;fontColor=#333333;strokeColor=#666666;" vertex="1" parent="1">
          <mxGeometry x="420" y="321" width="40" height="40" as="geometry" />
        </mxCell>
        <mxCell id="U-zHn95BD_rkfPfJ5epH-4" value="LD2" style="ellipse;whiteSpace=wrap;html=1;aspect=fixed;fillColor=#f5f5f5;fontColor=#333333;strokeColor=#666666;" vertex="1" parent="1">
          <mxGeometry x="420" y="411" width="40" height="40" as="geometry" />
        </mxCell>
        <mxCell id="U-zHn95BD_rkfPfJ5epH-37" style="edgeStyle=orthogonalEdgeStyle;rounded=0;orthogonalLoop=1;jettySize=auto;html=1;exitX=0.5;exitY=1;exitDx=0;exitDy=0;entryX=0.5;entryY=0;entryDx=0;entryDy=0;" edge="1" parent="1" source="U-zHn95BD_rkfPfJ5epH-5" target="U-zHn95BD_rkfPfJ5epH-36">
          <mxGeometry relative="1" as="geometry" />
        </mxCell>
        <mxCell id="U-zHn95BD_rkfPfJ5epH-5" value="ADD" style="ellipse;whiteSpace=wrap;html=1;aspect=fixed;fillColor=#f5f5f5;fontColor=#333333;strokeColor=#666666;" vertex="1" parent="1">
          <mxGeometry x="370" y="501" width="40" height="40" as="geometry" />
        </mxCell>
        <mxCell id="U-zHn95BD_rkfPfJ5epH-6" value="" style="endArrow=classic;html=1;rounded=0;exitX=0.5;exitY=1;exitDx=0;exitDy=0;entryX=0.5;entryY=0;entryDx=0;entryDy=0;" edge="1" parent="1" source="U-zHn95BD_rkfPfJ5epH-3" target="U-zHn95BD_rkfPfJ5epH-4">
          <mxGeometry width="50" height="50" relative="1" as="geometry">
            <mxPoint x="450" y="391" as="sourcePoint" />
            <mxPoint x="490" y="521" as="targetPoint" />
          </mxGeometry>
        </mxCell>
        <mxCell id="U-zHn95BD_rkfPfJ5epH-7" value="" style="endArrow=classic;html=1;rounded=0;exitX=0.5;exitY=1;exitDx=0;exitDy=0;entryX=0.5;entryY=0;entryDx=0;entryDy=0;" edge="1" parent="1" source="U-zHn95BD_rkfPfJ5epH-4" target="U-zHn95BD_rkfPfJ5epH-5">
          <mxGeometry width="50" height="50" relative="1" as="geometry">
            <mxPoint x="430" y="501" as="sourcePoint" />
            <mxPoint x="350" y="511" as="targetPoint" />
          </mxGeometry>
        </mxCell>
        <mxCell id="U-zHn95BD_rkfPfJ5epH-8" value="" style="endArrow=classic;html=1;rounded=0;exitX=0.5;exitY=1;exitDx=0;exitDy=0;entryX=0.5;entryY=0;entryDx=0;entryDy=0;" edge="1" parent="1" source="U-zHn95BD_rkfPfJ5epH-1" target="U-zHn95BD_rkfPfJ5epH-5">
          <mxGeometry width="50" height="50" relative="1" as="geometry">
            <mxPoint x="450" y="501" as="sourcePoint" />
            <mxPoint x="350" y="551" as="targetPoint" />
          </mxGeometry>
        </mxCell>
        <mxCell id="U-zHn95BD_rkfPfJ5epH-9" value="temp=colIndices[A];" style="text;strokeColor=none;align=center;fillColor=none;html=1;verticalAlign=middle;whiteSpace=wrap;rounded=0;" vertex="1" parent="1">
          <mxGeometry x="490" y="326" width="60" height="30" as="geometry" />
        </mxCell>
        <mxCell id="U-zHn95BD_rkfPfJ5epH-10" value="data[A]" style="text;whiteSpace=wrap;" vertex="1" parent="1">
          <mxGeometry x="270" y="421" width="70" height="40" as="geometry" />
        </mxCell>
        <mxCell id="U-zHn95BD_rkfPfJ5epH-11" value="v[temp]" style="text;whiteSpace=wrap;" vertex="1" parent="1">
          <mxGeometry x="470" y="421" width="70" height="40" as="geometry" />
        </mxCell>
        <mxCell id="U-zHn95BD_rkfPfJ5epH-12" value="data[A] * v[colIndices[jA]" style="text;whiteSpace=wrap;" vertex="1" parent="1">
          <mxGeometry x="410" y="511" width="150" height="40" as="geometry" />
        </mxCell>
        <mxCell id="U-zHn95BD_rkfPfJ5epH-22" style="edgeStyle=orthogonalEdgeStyle;rounded=0;orthogonalLoop=1;jettySize=auto;html=1;exitX=1;exitY=0.5;exitDx=0;exitDy=0;entryX=0.5;entryY=0;entryDx=0;entryDy=0;" edge="1" parent="1" source="U-zHn95BD_rkfPfJ5epH-13" target="U-zHn95BD_rkfPfJ5epH-20">
          <mxGeometry relative="1" as="geometry" />
        </mxCell>
        <mxCell id="U-zHn95BD_rkfPfJ5epH-24" style="edgeStyle=orthogonalEdgeStyle;rounded=0;orthogonalLoop=1;jettySize=auto;html=1;exitX=0.5;exitY=1;exitDx=0;exitDy=0;entryX=1;entryY=0.5;entryDx=0;entryDy=0;" edge="1" parent="1" source="U-zHn95BD_rkfPfJ5epH-13" target="U-zHn95BD_rkfPfJ5epH-21">
          <mxGeometry relative="1" as="geometry" />
        </mxCell>
        <mxCell id="U-zHn95BD_rkfPfJ5epH-13" value="&lt;sub&gt;&lt;span style=&quot;font-size: 12px;&quot;&gt;A&lt;/span&gt;d&lt;/sub&gt;" style="whiteSpace=wrap;html=1;aspect=fixed;fillColor=#0050ef;strokeColor=#001DBC;fontColor=#ffffff;" vertex="1" parent="1">
          <mxGeometry x="320" y="70" width="40" height="40" as="geometry" />
        </mxCell>
        <mxCell id="U-zHn95BD_rkfPfJ5epH-25" style="edgeStyle=orthogonalEdgeStyle;rounded=0;orthogonalLoop=1;jettySize=auto;html=1;exitX=0;exitY=0.5;exitDx=0;exitDy=0;entryX=0.5;entryY=0;entryDx=0;entryDy=0;" edge="1" parent="1" source="U-zHn95BD_rkfPfJ5epH-14" target="U-zHn95BD_rkfPfJ5epH-20">
          <mxGeometry relative="1" as="geometry" />
        </mxCell>
        <mxCell id="U-zHn95BD_rkfPfJ5epH-14" value="&lt;sub&gt;&lt;span style=&quot;font-size: 12px;&quot;&gt;B&lt;/span&gt;d&lt;/sub&gt;" style="whiteSpace=wrap;html=1;aspect=fixed;fillColor=#0050ef;strokeColor=#001DBC;fontColor=#ffffff;" vertex="1" parent="1">
          <mxGeometry x="420" y="70" width="40" height="40" as="geometry" />
        </mxCell>
        <mxCell id="U-zHn95BD_rkfPfJ5epH-15" value="" style="endArrow=classic;html=1;rounded=0;entryX=0.5;entryY=0;entryDx=0;entryDy=0;" edge="1" parent="1" target="U-zHn95BD_rkfPfJ5epH-13">
          <mxGeometry width="50" height="50" relative="1" as="geometry">
            <mxPoint x="340" y="40" as="sourcePoint" />
            <mxPoint x="390" y="-10" as="targetPoint" />
          </mxGeometry>
        </mxCell>
        <mxCell id="U-zHn95BD_rkfPfJ5epH-17" value="" style="endArrow=classic;html=1;rounded=0;entryX=0.5;entryY=0;entryDx=0;entryDy=0;" edge="1" parent="1">
          <mxGeometry width="50" height="50" relative="1" as="geometry">
            <mxPoint x="439.71" y="40" as="sourcePoint" />
            <mxPoint x="439.71" y="70" as="targetPoint" />
          </mxGeometry>
        </mxCell>
        <mxCell id="U-zHn95BD_rkfPfJ5epH-18" value="rowPtr[i]" style="text;whiteSpace=wrap;" vertex="1" parent="1">
          <mxGeometry x="320" y="20" width="80" height="40" as="geometry" />
        </mxCell>
        <mxCell id="U-zHn95BD_rkfPfJ5epH-19" value="rowPtr[i+1]" style="text;whiteSpace=wrap;" vertex="1" parent="1">
          <mxGeometry x="420" y="20" width="80" height="40" as="geometry" />
        </mxCell>
        <mxCell id="U-zHn95BD_rkfPfJ5epH-23" style="edgeStyle=orthogonalEdgeStyle;rounded=0;orthogonalLoop=1;jettySize=auto;html=1;exitX=0.5;exitY=1;exitDx=0;exitDy=0;entryX=0.5;entryY=1;entryDx=0;entryDy=0;curved=1;" edge="1" parent="1" source="U-zHn95BD_rkfPfJ5epH-20" target="U-zHn95BD_rkfPfJ5epH-21">
          <mxGeometry relative="1" as="geometry">
            <Array as="points">
              <mxPoint x="390" y="240" />
            </Array>
          </mxGeometry>
        </mxCell>
        <mxCell id="U-zHn95BD_rkfPfJ5epH-20" value="A&amp;lt;B" style="ellipse;whiteSpace=wrap;html=1;aspect=fixed;fillColor=#f5f5f5;fontColor=#333333;strokeColor=#666666;" vertex="1" parent="1">
          <mxGeometry x="370" y="150" width="40" height="40" as="geometry" />
        </mxCell>
        <mxCell id="U-zHn95BD_rkfPfJ5epH-26" style="edgeStyle=orthogonalEdgeStyle;rounded=0;orthogonalLoop=1;jettySize=auto;html=1;exitX=0;exitY=0.5;exitDx=0;exitDy=0;entryX=0.5;entryY=0;entryDx=0;entryDy=0;" edge="1" parent="1" source="U-zHn95BD_rkfPfJ5epH-21" target="U-zHn95BD_rkfPfJ5epH-1">
          <mxGeometry relative="1" as="geometry" />
        </mxCell>
        <mxCell id="U-zHn95BD_rkfPfJ5epH-27" style="edgeStyle=orthogonalEdgeStyle;rounded=0;orthogonalLoop=1;jettySize=auto;html=1;exitX=0;exitY=0.5;exitDx=0;exitDy=0;entryX=0.5;entryY=0;entryDx=0;entryDy=0;" edge="1" parent="1" source="U-zHn95BD_rkfPfJ5epH-21" target="U-zHn95BD_rkfPfJ5epH-3">
          <mxGeometry relative="1" as="geometry">
            <Array as="points">
              <mxPoint x="340" y="280" />
            </Array>
          </mxGeometry>
        </mxCell>
        <mxCell id="U-zHn95BD_rkfPfJ5epH-21" value="T&lt;sub&gt;a&lt;/sub&gt;" style="triangle;whiteSpace=wrap;html=1;direction=north;fillColor=#f5f5f5;fontColor=#333333;strokeColor=#666666;" vertex="1" parent="1">
          <mxGeometry x="320" y="220" width="40" height="40" as="geometry" />
        </mxCell>
        <mxCell id="U-zHn95BD_rkfPfJ5epH-28" value="data" style="text;whiteSpace=wrap;" vertex="1" parent="1">
          <mxGeometry x="270" y="381" width="70" height="40" as="geometry" />
        </mxCell>
        <mxCell id="U-zHn95BD_rkfPfJ5epH-29" value="colIndices" style="text;whiteSpace=wrap;" vertex="1" parent="1">
          <mxGeometry x="490" y="286" width="70" height="40" as="geometry" />
        </mxCell>
        <mxCell id="U-zHn95BD_rkfPfJ5epH-30" value="v" style="text;whiteSpace=wrap;" vertex="1" parent="1">
          <mxGeometry x="490" y="381" width="20" height="19" as="geometry" />
        </mxCell>
        <mxCell id="U-zHn95BD_rkfPfJ5epH-32" value="" style="endArrow=classic;html=1;rounded=0;entryX=0.75;entryY=1;entryDx=0;entryDy=0;" edge="1" parent="1" target="U-zHn95BD_rkfPfJ5epH-28">
          <mxGeometry width="50" height="50" relative="1" as="geometry">
            <mxPoint x="300" y="401" as="sourcePoint" />
            <mxPoint x="350" y="351" as="targetPoint" />
          </mxGeometry>
        </mxCell>
        <mxCell id="U-zHn95BD_rkfPfJ5epH-34" value="" style="endArrow=classic;html=1;rounded=0;entryX=1;entryY=0;entryDx=0;entryDy=0;exitX=0;exitY=0.5;exitDx=0;exitDy=0;" edge="1" parent="1" source="U-zHn95BD_rkfPfJ5epH-29" target="U-zHn95BD_rkfPfJ5epH-3">
          <mxGeometry width="50" height="50" relative="1" as="geometry">
            <mxPoint x="490" y="321" as="sourcePoint" />
            <mxPoint x="520" y="390" as="targetPoint" />
          </mxGeometry>
        </mxCell>
        <mxCell id="U-zHn95BD_rkfPfJ5epH-35" value="" style="endArrow=classic;html=1;rounded=0;exitX=0;exitY=1;exitDx=0;exitDy=0;entryX=1;entryY=0;entryDx=0;entryDy=0;" edge="1" parent="1" source="U-zHn95BD_rkfPfJ5epH-30" target="U-zHn95BD_rkfPfJ5epH-4">
          <mxGeometry width="50" height="50" relative="1" as="geometry">
            <mxPoint x="510" y="401" as="sourcePoint" />
            <mxPoint x="780" y="350" as="targetPoint" />
          </mxGeometry>
        </mxCell>
        <mxCell id="U-zHn95BD_rkfPfJ5epH-41" style="edgeStyle=orthogonalEdgeStyle;rounded=0;orthogonalLoop=1;jettySize=auto;html=1;exitX=0.5;exitY=1;exitDx=0;exitDy=0;entryX=0;entryY=0.5;entryDx=0;entryDy=0;curved=1;" edge="1" parent="1" source="U-zHn95BD_rkfPfJ5epH-36" target="U-zHn95BD_rkfPfJ5epH-13">
          <mxGeometry relative="1" as="geometry">
            <Array as="points">
              <mxPoint x="390" y="650" />
              <mxPoint x="240" y="650" />
              <mxPoint x="240" y="90" />
            </Array>
          </mxGeometry>
        </mxCell>
        <mxCell id="U-zHn95BD_rkfPfJ5epH-46" value="con" style="edgeLabel;html=1;align=center;verticalAlign=middle;resizable=0;points=[];" vertex="1" connectable="0" parent="U-zHn95BD_rkfPfJ5epH-41">
          <mxGeometry x="0.9012" y="-21" relative="1" as="geometry">
            <mxPoint as="offset" />
          </mxGeometry>
        </mxCell>
        <mxCell id="U-zHn95BD_rkfPfJ5epH-43" style="edgeStyle=orthogonalEdgeStyle;rounded=0;orthogonalLoop=1;jettySize=auto;html=1;exitX=0.5;exitY=1;exitDx=0;exitDy=0;entryX=1;entryY=0.5;entryDx=0;entryDy=0;curved=1;" edge="1" parent="1" source="U-zHn95BD_rkfPfJ5epH-36" target="U-zHn95BD_rkfPfJ5epH-14">
          <mxGeometry relative="1" as="geometry">
            <Array as="points">
              <mxPoint x="390" y="650" />
              <mxPoint x="610" y="650" />
              <mxPoint x="610" y="90" />
            </Array>
          </mxGeometry>
        </mxCell>
        <mxCell id="U-zHn95BD_rkfPfJ5epH-45" value="con" style="edgeLabel;html=1;align=center;verticalAlign=middle;resizable=0;points=[];" vertex="1" connectable="0" parent="U-zHn95BD_rkfPfJ5epH-43">
          <mxGeometry x="0.8316" y="26" relative="1" as="geometry">
            <mxPoint as="offset" />
          </mxGeometry>
        </mxCell>
        <mxCell id="U-zHn95BD_rkfPfJ5epH-36" value="ST" style="ellipse;whiteSpace=wrap;html=1;aspect=fixed;fillColor=#f5f5f5;fontColor=#333333;strokeColor=#666666;" vertex="1" parent="1">
          <mxGeometry x="370" y="590" width="40" height="40" as="geometry" />
        </mxCell>
        <mxCell id="U-zHn95BD_rkfPfJ5epH-39" style="rounded=0;orthogonalLoop=1;jettySize=auto;html=1;exitX=1.052;exitY=1.043;exitDx=0;exitDy=0;entryX=0;entryY=0.5;entryDx=0;entryDy=0;exitPerimeter=0;" edge="1" parent="1" source="U-zHn95BD_rkfPfJ5epH-38" target="U-zHn95BD_rkfPfJ5epH-36">
          <mxGeometry relative="1" as="geometry" />
        </mxCell>
        <mxCell id="U-zHn95BD_rkfPfJ5epH-38" value="result" style="text;whiteSpace=wrap;" vertex="1" parent="1">
          <mxGeometry x="310" y="570" width="30" height="20" as="geometry" />
        </mxCell>
      </root>
    </mxGraphModel>
  </diagram>
</mxfile>
